<svg width="56" height="56" viewBox="0 0 56 56" fill="none" xmlns="http://www.w3.org/2000/svg">
<path d="M28 37.9076L25.457 35.6107C22.5586 32.9857 20.4531 31.0443 19.1406 29.7865C17.8281 28.5287 16.3516 26.9701 14.7109 25.1107C13.125 23.2513 12.0312 21.5834 11.4297 20.1068C10.8281 18.5756 10.5273 17.017 10.5273 15.431C10.5273 12.7513 11.4297 10.4818 13.2344 8.62244C15.0937 6.76307 17.3906 5.83338 20.125 5.83338C23.2969 5.83338 25.9219 7.06385 28 9.52479C30.0781 7.06385 32.7031 5.83338 35.875 5.83338C38.6094 5.83338 40.8789 6.76307 42.6836 8.62244C44.543 10.4818 45.4726 12.7513 45.4726 15.431C45.4726 17.5638 44.7617 19.7787 43.3398 22.0756C41.918 24.3724 40.3594 26.3685 38.6641 28.0638C37.0234 29.7592 34.3164 32.3021 30.543 35.6928L28 37.9076Z" fill="#D20637"/>
<path d="M27.7419 23.9307C27.3409 23.5298 26.8078 23.309 26.2408 23.309C25.6738 23.309 25.1407 23.5298 24.7398 23.9307L24.326 24.3445C23.9167 24.7538 23.6913 25.298 23.6913 25.8768C23.6913 26.6261 24.0771 26.9926 24.4007 27.1682C24.7431 27.354 25.187 27.4368 25.84 27.4368H26.605C27.1455 27.4368 28.7903 27.4368 28.7903 25.8768C28.7903 25.298 28.5649 24.7538 28.1556 24.3445L27.7419 23.9307Z" fill="white"/>
<path d="M26.2393 22.5805C26.8428 22.5805 27.332 22.037 27.332 21.3665C27.332 20.696 26.8428 20.1524 26.2393 20.1524C25.6359 20.1524 25.1467 20.696 25.1467 21.3665C25.1467 22.037 25.6359 22.5805 26.2393 22.5805Z" fill="white"/>
<path d="M24.0938 21.8028C23.8718 21.5809 23.5858 21.446 23.2884 21.4231C22.9745 21.399 22.6735 21.5061 22.4627 21.717C22.0366 22.143 22.0751 22.8747 22.5485 23.3481C22.8015 23.6011 23.1284 23.7299 23.4429 23.7299C23.7167 23.7299 23.9813 23.6323 24.1796 23.4339C24.6056 23.0079 24.5671 22.2762 24.0938 21.8028Z" fill="white"/>
<path d="M30.5036 18.0885C31.1071 18.0885 31.5963 17.5449 31.5963 16.8744C31.5963 16.2039 31.1071 15.6603 30.5036 15.6603C29.9001 15.6603 29.4109 16.2039 29.4109 16.8744C29.4109 17.5449 29.9001 18.0885 30.5036 18.0885Z" fill="white"/>
<path d="M26.8124 18.856C27.0654 19.1091 27.3923 19.2379 27.7068 19.2379C27.9806 19.2379 28.2452 19.1402 28.4435 18.9419C28.6544 18.731 28.7615 18.4301 28.7373 18.1162C28.7145 17.8188 28.5796 17.5328 28.3577 17.3108C28.1357 17.0889 27.8497 16.954 27.5523 16.9312C27.2384 16.907 26.9374 17.0141 26.7266 17.225C26.5157 17.4359 26.4086 17.7368 26.4327 18.0507C26.4556 18.3481 26.5905 18.6341 26.8124 18.856Z" fill="white"/>
<path d="M34.2807 17.225C34.0698 17.0141 33.7692 16.9069 33.455 16.9312C33.1576 16.9541 32.8716 17.0889 32.6496 17.3109C32.1763 17.7842 32.1378 18.5159 32.5638 18.942C32.7621 19.1403 33.0266 19.2379 33.3005 19.2379C33.615 19.2379 33.9419 19.1091 34.1949 18.8561C34.6682 18.3827 34.7068 17.6511 34.2807 17.225Z" fill="white"/>
<path d="M32.4189 19.8524L32.0051 19.4386C31.6042 19.0377 31.0711 18.8169 30.5041 18.8169C29.9371 18.8169 29.404 19.0377 29.003 19.4386L28.5893 19.8524C28.2233 20.2184 28.0049 20.6922 27.9626 21.2022C28.2936 20.9085 28.7056 20.7299 29.1358 20.6968C29.1833 20.6932 29.2314 20.6914 29.2788 20.6914C29.758 20.6914 30.2032 20.8727 30.5324 21.2019C30.8939 21.5633 31.0779 22.0724 31.0375 22.5986C31.0284 22.7156 31.0087 22.8313 30.9788 22.9443C31.6031 22.9389 33.0536 22.8497 33.0536 21.3847C33.0536 20.8059 32.8282 20.2617 32.4189 19.8524Z" fill="white"/>
<path d="M29.2781 21.4198C29.2492 21.4198 29.2202 21.4209 29.191 21.4231C28.8936 21.446 28.6075 21.5809 28.3856 21.8028C28.2805 21.9078 28.1953 22.0274 28.1319 22.1556C28.0619 22.2969 28.0182 22.451 28.0059 22.6082C27.9818 22.9221 28.0889 23.223 28.2997 23.4339C28.4981 23.6322 28.7626 23.7299 29.0365 23.7299C29.351 23.7299 29.6778 23.601 29.9308 23.3481C30.0467 23.2319 30.1419 23.0949 30.2082 22.9447C30.2648 22.8167 30.2999 22.6809 30.3105 22.5427C30.3347 22.2288 30.2276 21.9278 30.0167 21.7169C29.8254 21.5257 29.5603 21.4198 29.2781 21.4198Z" fill="white"/>
<path d="M9.14667 42.8434V50.9167H8.085V44.8967L5.40167 50.9167H4.655L1.96 44.885V50.9167H0.898333V42.8434H2.04167L5.02833 49.5167L8.015 42.8434H9.14667ZM16.7805 47.475C16.7805 47.6772 16.7688 47.8911 16.7455 48.1167H11.6355C11.6744 48.7467 11.8883 49.2406 12.2772 49.5984C12.6738 49.9484 13.1522 50.1234 13.7122 50.1234C14.171 50.1234 14.5522 50.0184 14.8555 49.8084C15.1666 49.5906 15.3844 49.3028 15.5088 48.945H16.6522C16.481 49.5595 16.1388 50.0611 15.6255 50.45C15.1122 50.8311 14.4744 51.0217 13.7122 51.0217C13.1055 51.0217 12.561 50.8856 12.0788 50.6134C11.6044 50.3411 11.231 49.9561 10.9588 49.4584C10.6866 48.9528 10.5505 48.3695 10.5505 47.7084C10.5505 47.0472 10.6827 46.4678 10.9472 45.97C11.2116 45.4722 11.581 45.0911 12.0555 44.8267C12.5377 44.5545 13.0899 44.4184 13.7122 44.4184C14.3188 44.4184 14.8555 44.5506 15.3222 44.815C15.7888 45.0795 16.1466 45.445 16.3955 45.9117C16.6522 46.3706 16.7805 46.8917 16.7805 47.475ZM15.6838 47.2534C15.6838 46.8489 15.5944 46.5028 15.4155 46.215C15.2366 45.9195 14.9916 45.6978 14.6805 45.55C14.3772 45.3945 14.0388 45.3167 13.6655 45.3167C13.1288 45.3167 12.6699 45.4878 12.2888 45.83C11.9155 46.1722 11.7016 46.6467 11.6472 47.2534H15.6838ZM20.8955 47.6967C20.8955 47.0434 21.0278 46.4717 21.2922 45.9817C21.5567 45.4839 21.9183 45.0989 22.3772 44.8267C22.8439 44.5545 23.3611 44.4184 23.9289 44.4184C24.4889 44.4184 24.975 44.5389 25.3872 44.78C25.7994 45.0211 26.1067 45.3245 26.3089 45.69V44.5234H27.3822V50.9167H26.3089V49.7267C26.0989 50.1 25.7839 50.4111 25.3639 50.66C24.9517 50.9011 24.4694 51.0217 23.9172 51.0217C23.3494 51.0217 22.8361 50.8817 22.3772 50.6017C21.9183 50.3217 21.5567 49.9289 21.2922 49.4234C21.0278 48.9178 20.8955 48.3422 20.8955 47.6967ZM26.3089 47.7084C26.3089 47.2261 26.2117 46.8061 26.0172 46.4484C25.8228 46.0906 25.5583 45.8184 25.2239 45.6317C24.8972 45.4372 24.5355 45.34 24.1389 45.34C23.7422 45.34 23.3805 45.4334 23.0539 45.62C22.7272 45.8067 22.4667 46.0789 22.2722 46.4367C22.0778 46.7945 21.9805 47.2145 21.9805 47.6967C21.9805 48.1867 22.0778 48.6145 22.2722 48.98C22.4667 49.3378 22.7272 49.6139 23.0539 49.8084C23.3805 49.995 23.7422 50.0884 24.1389 50.0884C24.5355 50.0884 24.8972 49.995 25.2239 49.8084C25.5583 49.6139 25.8228 49.3378 26.0172 48.98C26.2117 48.6145 26.3089 48.1906 26.3089 47.7084ZM28.7797 47.6967C28.7797 47.0434 28.9119 46.4717 29.1763 45.9817C29.4408 45.4839 29.8024 45.0989 30.2613 44.8267C30.728 44.5545 31.2491 44.4184 31.8247 44.4184C32.3224 44.4184 32.7852 44.535 33.213 44.7684C33.6408 44.9939 33.9674 45.2934 34.193 45.6667V42.2834H35.2663V50.9167H34.193V49.715C33.983 50.0961 33.6719 50.4111 33.2597 50.66C32.8474 50.9011 32.3652 51.0217 31.813 51.0217C31.2452 51.0217 30.728 50.8817 30.2613 50.6017C29.8024 50.3217 29.4408 49.9289 29.1763 49.4234C28.9119 48.9178 28.7797 48.3422 28.7797 47.6967ZM34.193 47.7084C34.193 47.2261 34.0958 46.8061 33.9013 46.4484C33.7069 46.0906 33.4424 45.8184 33.108 45.6317C32.7813 45.4372 32.4197 45.34 32.023 45.34C31.6263 45.34 31.2647 45.4334 30.938 45.62C30.6113 45.8067 30.3508 46.0789 30.1563 46.4367C29.9619 46.7945 29.8647 47.2145 29.8647 47.6967C29.8647 48.1867 29.9619 48.6145 30.1563 48.98C30.3508 49.3378 30.6113 49.6139 30.938 49.8084C31.2647 49.995 31.6263 50.0884 32.023 50.0884C32.4197 50.0884 32.7813 49.995 33.108 49.8084C33.4424 49.6139 33.7069 49.3378 33.9013 48.98C34.0958 48.6145 34.193 48.1906 34.193 47.7084ZM39.8488 51.0217C39.2499 51.0217 38.7054 50.8856 38.2154 50.6134C37.7332 50.3411 37.3521 49.9561 37.0721 49.4584C36.7999 48.9528 36.6638 48.3695 36.6638 47.7084C36.6638 47.055 36.8038 46.4795 37.0838 45.9817C37.3715 45.4761 37.7604 45.0911 38.2504 44.8267C38.7404 44.5545 39.2888 44.4184 39.8954 44.4184C40.5021 44.4184 41.0504 44.5545 41.5404 44.8267C42.0304 45.0911 42.4154 45.4722 42.6954 45.97C42.9832 46.4678 43.1271 47.0472 43.1271 47.7084C43.1271 48.3695 42.9793 48.9528 42.6838 49.4584C42.396 49.9561 42.0032 50.3411 41.5054 50.6134C41.0077 50.8856 40.4554 51.0217 39.8488 51.0217ZM39.8488 50.0884C40.2299 50.0884 40.5877 49.9989 40.9221 49.82C41.2566 49.6411 41.5249 49.3728 41.7271 49.015C41.9371 48.6572 42.0421 48.2217 42.0421 47.7084C42.0421 47.195 41.941 46.7595 41.7388 46.4017C41.5365 46.0439 41.2721 45.7795 40.9454 45.6084C40.6188 45.4295 40.2649 45.34 39.8838 45.34C39.4949 45.34 39.1371 45.4295 38.8104 45.6084C38.4915 45.7795 38.2349 46.0439 38.0404 46.4017C37.846 46.7595 37.7488 47.195 37.7488 47.7084C37.7488 48.2295 37.8421 48.6689 38.0288 49.0267C38.2232 49.3845 38.4799 49.6528 38.7988 49.8317C39.1177 50.0028 39.4677 50.0884 39.8488 50.0884ZM45.818 45.3984V49.1667C45.818 49.4778 45.8841 49.6995 46.0163 49.8317C46.1486 49.9561 46.378 50.0184 46.7047 50.0184H47.4863V50.9167H46.5297C45.9386 50.9167 45.4952 50.7806 45.1997 50.5084C44.9041 50.2361 44.7563 49.7889 44.7563 49.1667V45.3984H43.928V44.5234H44.7563V42.9134H45.818V44.5234H47.4863V45.3984H45.818ZM48.376 47.6967C48.376 47.0434 48.5082 46.4717 48.7727 45.9817C49.0371 45.4839 49.3988 45.0989 49.8577 44.8267C50.3243 44.5545 50.8416 44.4184 51.4093 44.4184C51.9693 44.4184 52.4555 44.5389 52.8677 44.78C53.2799 45.0211 53.5871 45.3245 53.7893 45.69V44.5234H54.8627V50.9167H53.7893V49.7267C53.5793 50.1 53.2643 50.4111 52.8443 50.66C52.4321 50.9011 51.9499 51.0217 51.3977 51.0217C50.8299 51.0217 50.3166 50.8817 49.8577 50.6017C49.3988 50.3217 49.0371 49.9289 48.7727 49.4234C48.5082 48.9178 48.376 48.3422 48.376 47.6967ZM53.7893 47.7084C53.7893 47.2261 53.6921 46.8061 53.4977 46.4484C53.3032 46.0906 53.0388 45.8184 52.7043 45.6317C52.3777 45.4372 52.016 45.34 51.6193 45.34C51.2227 45.34 50.861 45.4334 50.5343 45.62C50.2077 45.8067 49.9471 46.0789 49.7527 46.4367C49.5582 46.7945 49.461 47.2145 49.461 47.6967C49.461 48.1867 49.5582 48.6145 49.7527 48.98C49.9471 49.3378 50.2077 49.6139 50.5343 49.8084C50.861 49.995 51.2227 50.0884 51.6193 50.0884C52.016 50.0884 52.3777 49.995 52.7043 49.8084C53.0388 49.6139 53.3032 49.3378 53.4977 48.98C53.6921 48.6145 53.7893 48.1906 53.7893 47.7084Z" fill="#BB506A"/>
</svg>
