<svg width="24" height="24" viewBox="0 0 24 24" fill="none" xmlns="http://www.w3.org/2000/svg">
<path d="M19 21.9999H5C4.44772 21.9999 4 21.5521 4 20.9999V11.3569C4.01549 11.1118 4.11964 10.8808 4.293 10.7069L11.293 3.70686C11.4806 3.51908 11.7351 3.41357 12.0005 3.41357C12.2659 3.41357 12.5204 3.51908 12.708 3.70686L19.708 10.7069C19.8957 10.8941 20.0009 11.1487 20 11.4139V20.9999C20 21.5521 19.5523 21.9999 19 21.9999ZM12 5.82786L6 11.8279V19.9999H18V11.8279L12 5.82786ZM9.878 18.0709L8.465 16.6569L10.586 14.5359L8.465 12.4139L9.879 10.9999L12 13.1209L14.121 10.9999L15.535 12.4139L13.414 14.5349L15.535 16.6559L14.122 18.0689L12 15.9489L9.879 18.0709H9.878Z" fill="#2E3A59"/>
</svg>
