<svg width="24" height="24" viewBox="0 0 24 24" fill="none" xmlns="http://www.w3.org/2000/svg">
<path d="M19 21.9999H5C4.44772 21.9999 4 21.5521 4 20.9999V11.3569C4.01549 11.1118 4.11964 10.8808 4.293 10.7069L11.293 3.70686C11.4806 3.51908 11.7351 3.41357 12.0005 3.41357C12.2659 3.41357 12.5204 3.51908 12.708 3.70686L19.708 10.7069C19.8957 10.8941 20.0009 11.1487 20 11.4139V20.9999C20 21.5521 19.5523 21.9999 19 21.9999ZM12 5.82786L6 11.8279V19.9999H18V11.8279L12 5.82786ZM12 17.9989C11.792 17.8139 11.557 17.6209 11.308 17.4169L11.261 17.3789C10.104 16.4349 8.661 15.2599 8.661 13.7989C8.66116 13.3148 8.85626 12.8512 9.20228 12.5127C9.5483 12.1742 10.0161 11.9894 10.5 11.9999C11.0722 11.9983 11.6179 12.241 12 12.6669C12.3822 12.2411 12.9278 11.9984 13.5 11.9999C13.9834 11.9905 14.4503 12.1759 14.7955 12.5145C15.1407 12.8531 15.3351 13.3163 15.335 13.7999C15.335 15.2659 13.883 16.4489 12.717 17.3999L12.66 17.4469C12.423 17.6409 12.199 17.8239 11.999 18.0009L12 17.9989Z" fill="#2E3A59"/>
</svg>
