<svg width="24" height="24" viewBox="0 0 24 24" fill="none" xmlns="http://www.w3.org/2000/svg">
<path d="M16 20H5C4.44772 20 4 19.5522 4 19V11.14C4 10.8806 4.10076 10.6314 4.281 10.445L9.781 4.74496C9.96945 4.54972 10.2292 4.43945 10.5005 4.43945C10.7719 4.43945 11.0315 4.54972 11.22 4.74496L12.871 6.45796L11.438 7.85196L10.5 6.87996L6 11.54V17.995H17V18.995C17.0013 19.261 16.8966 19.5167 16.7089 19.7053C16.5212 19.8939 16.2661 20 16 20ZM17 16H15V13H12V11H15V7.99996H17V11H20V13H17V16Z" fill="#2E3A59"/>
</svg>
