<svg width="24" height="24" viewBox="0 0 24 24" fill="none" xmlns="http://www.w3.org/2000/svg">
<path d="M19 21.9999H5C4.44772 21.9999 4 21.5521 4 20.9999V11.3569C4.01549 11.1118 4.11964 10.8808 4.293 10.7069L11.293 3.70686C11.4806 3.51908 11.7351 3.41357 12.0005 3.41357C12.2659 3.41357 12.5204 3.51908 12.708 3.70686L19.708 10.7069C19.8957 10.8941 20.0009 11.1487 20 11.4139V20.9999C20 21.5521 19.5523 21.9999 19 21.9999ZM11.378 17.4749C11.598 17.6549 11.811 17.8309 12 17.9999C12.2 17.8229 12.424 17.6399 12.662 17.4459L12.719 17.3989C13.885 16.4479 15.337 15.2649 15.337 13.7989C15.3368 13.3152 15.142 12.8519 14.7964 12.5135C14.4508 12.175 13.9836 11.9899 13.5 11.9999C12.9278 11.9983 12.3821 12.241 12 12.6669C11.6179 12.2409 11.0722 11.9982 10.5 11.9999C10.0166 11.9905 9.5497 12.1759 9.20452 12.5145C8.85935 12.8531 8.66491 13.3163 8.665 13.7999C8.665 15.2609 10.105 16.4359 11.265 17.3799H11.264H11.269L11.287 17.3949H11.292L11.3 17.4139L11.352 17.4569L11.365 17.4669H11.371L11.378 17.4749Z" fill="#2E3A59"/>
</svg>
