<svg width="20" height="19" viewBox="0 0 20 19" fill="none" xmlns="http://www.w3.org/2000/svg">
<path d="M7.79735 6.05146C7.35469 4.57593 8.45958 3.09091 10.0001 3.09091V3.09091C11.5406 3.09091 12.6455 4.57593 12.2028 6.05146L10.9949 10.078C10.9406 10.2589 10.9135 10.3493 10.8717 10.4237C10.7643 10.615 10.5807 10.7517 10.3666 10.7995C10.2833 10.8182 10.1889 10.8182 10.0001 10.8182V10.8182C9.81131 10.8182 9.71692 10.8182 9.63361 10.7995C9.41952 10.7517 9.23587 10.615 9.12848 10.4237C9.08669 10.3493 9.05956 10.2589 9.00532 10.078L7.79735 6.05146Z" stroke="#F3AD55" stroke-width="1.54545"/>
<circle cx="9.99956" cy="14.6818" r="1.54545" stroke="#F3AD55" stroke-width="1.54545"/>
</svg>
