<svg width="19" height="20" viewBox="0 0 19 20" fill="none" xmlns="http://www.w3.org/2000/svg">
<path d="M14.5 18H4.5C4.224 18 4 17.776 4 17.5C4 17.224 4.224 17 4.5 17H14.5C14.776 17 15 17.224 15 17.5C15 17.776 14.776 18 14.5 18Z" fill="white"/>
<path d="M16.5 3C16.224 3 16 3.224 16 3.5V18.5C16 18.776 15.776 19 15.5 19H4.5C3.673 19 3 18.327 3 17.5C3 16.673 3.673 16 4.5 16H13.5C14.327 16 15 15.327 15 14.5V2.5C15 1.673 14.327 1 13.5 1H3.5C2.673 1 2 1.673 2 2.5V17.5C2 18.878 3.122 20 4.5 20H15.5C16.327 20 17 19.327 17 18.5V3.5C17 3.224 16.776 3 16.5 3ZM3.5 2H13.5C13.776 2 14 2.224 14 2.5V14.5C14 14.776 13.776 15 13.5 15H4.5C3.938 15 3.418 15.187 3 15.501V2.5C3 2.224 3.224 2 3.5 2Z" fill="white"/>
</svg>
