<svg width="17" height="17" viewBox="0 0 17 17" fill="none" xmlns="http://www.w3.org/2000/svg">
<path d="M10.1816 13.4475L8.09022 11.4426C7.59568 10.9684 6.84199 10.9173 6.29833 11.3214C6.29814 11.3215 6.2956 11.3233 6.2955 11.3235L6.28624 11.3304C6.27513 11.3388 6.2647 11.3389 6.25769 11.3377C6.24541 11.3354 6.24034 11.3276 6.23858 11.3245C5.75545 10.5575 5.42875 9.71441 5.26725 8.81861C5.10595 7.92262 5.11803 7.01805 5.3036 6.13015C5.30419 6.12712 5.30594 6.11913 5.3155 6.11338C5.32329 6.1088 5.33187 6.10783 5.34132 6.11065L5.35575 6.11484C6.00789 6.30568 6.69881 5.99399 6.99813 5.37401L8.36692 2.53974C8.55981 2.14033 8.47716 1.66343 8.16156 1.35203C8.04967 1.23878 7.92229 1.13225 7.78282 1.03517C6.53361 0.167542 4.82866 0.429332 3.90128 1.63127C3.84368 1.70651 3.79017 1.78526 3.73861 1.86479L3.73803 1.86567C3.55245 2.14042 3.46035 2.31196 3.32127 2.57112L3.29164 2.62619C3.25821 2.68788 2.46952 4.148 2.27518 5.17597C1.97391 6.77049 2.00062 8.4194 2.35276 9.94424C2.72478 11.5549 3.43209 12.9881 4.45478 14.2036C4.71433 14.5121 5.19513 14.1083 4.93529 13.7994C3.97701 12.6606 3.31396 11.3159 2.96464 9.80291C2.632 8.36199 2.60685 6.80246 2.89223 5.29253C3.06815 4.36145 3.83559 2.94003 3.84397 2.92472L3.87438 2.8681C3.99572 2.64217 4.12331 2.42463 4.26327 2.20982L4.26541 2.20641C4.30751 2.13984 4.35245 2.07532 4.40011 2.01265C5.1232 1.07767 6.45106 0.874844 7.42444 1.55086C7.53282 1.6261 7.63087 1.70817 7.71605 1.79452C7.71722 1.79579 7.71849 1.79706 7.71976 1.79832C7.84471 1.92084 7.87755 2.10914 7.80143 2.26664L6.43273 5.10092C6.26724 5.44341 5.88839 5.61641 5.53245 5.51241L5.52056 5.50881C5.34376 5.45608 5.15185 5.47976 4.99406 5.57391C4.83743 5.66729 4.72622 5.82313 4.68899 6.00169C4.48675 6.96893 4.4735 7.9541 4.64932 8.93002C4.82505 9.90545 5.1809 10.8236 5.70721 11.6591C5.80467 11.8141 5.96383 11.9219 6.14385 11.9551C6.32552 11.9886 6.5148 11.9439 6.66421 11.8317L6.67279 11.8254C6.96967 11.6048 7.38302 11.6344 7.65562 11.8958L9.74702 13.9007C10.0022 14.1455 10.0071 14.5582 9.83981 14.8517C9.54634 15.3629 8.93816 15.7056 8.3718 15.8017C7.7951 15.8993 7.21265 15.7695 6.73195 15.4356C6.40086 15.2057 6.04219 15.721 6.37377 15.9513C6.85641 16.2865 7.41888 16.4615 7.99529 16.4615C8.15513 16.4615 8.31624 16.448 8.47667 16.4208C9.22861 16.2932 9.99751 15.838 10.3843 15.1644L10.3916 15.1518C10.6986 14.6169 10.6363 13.8835 10.1816 13.4475Z" fill="#393A3A"/>
<path d="M11.3184 3.3784C9.45562 3.3784 7.94035 4.89378 7.94035 6.75661C7.94035 6.91938 7.95214 7.08332 7.97563 7.2452L7.4156 9.06447C7.35663 9.2558 7.50215 9.45998 7.69912 9.47031L9.43516 9.56125C9.99285 9.93678 10.642 10.1347 11.3184 10.1347C13.1811 10.1347 14.6966 8.61926 14.6966 6.75661C14.6966 4.89378 13.1811 3.3784 11.3184 3.3784ZM11.3184 9.50677C10.7422 9.50677 10.1904 9.33045 9.72287 8.99683C9.67424 8.96214 9.61664 8.94196 9.55708 8.93894L8.1341 8.86428L8.59706 7.3607C8.65145 7.18409 8.56831 6.94024 8.56831 6.75661C8.56831 5.24007 9.80192 4.00646 11.3184 4.00646C12.8348 4.00646 14.0685 5.24007 14.0685 6.75661C14.0685 8.27296 12.8348 9.50677 11.3184 9.50677Z" fill="#393A3A"/>
<path d="M10.1783 6.53125C10.0075 6.53125 9.86426 6.67452 9.86426 6.84518C9.86426 7.01593 10.0076 7.1593 10.1783 7.1593C10.344 7.1593 10.4843 7.02412 10.4916 6.85892C10.4993 6.6831 10.3546 6.53125 10.1783 6.53125Z" fill="#393A3A"/>
<path d="M5.52887 14.6263C5.35811 14.6263 5.21484 14.7696 5.21484 14.9402C5.21484 15.1108 5.35821 15.2542 5.52887 15.2542C5.69456 15.2542 5.83491 15.1192 5.84222 14.9539C5.84991 14.7784 5.70489 14.6263 5.52887 14.6263Z" fill="#393A3A"/>
<path d="M11.4126 6.53125C11.2415 6.53125 11.0986 6.67413 11.0986 6.84518C11.0986 7.01613 11.2418 7.1593 11.4126 7.1593C11.5785 7.1591 11.7184 7.02431 11.7256 6.85892C11.7333 6.6831 11.5892 6.53125 11.4126 6.53125Z" fill="#393A3A"/>
<path d="M12.6479 6.53125C12.4773 6.53125 12.334 6.67452 12.334 6.84518C12.3341 7.01593 12.4775 7.1593 12.6479 7.1593C12.8138 7.1593 12.954 7.02412 12.9613 6.85892C12.9692 6.6831 12.8244 6.53125 12.6479 6.53125Z" fill="#393A3A"/>
</svg>
