<svg width="14" height="14" viewBox="0 0 14 14" fill="none" xmlns="http://www.w3.org/2000/svg">
<path d="M10.5425 8.7092L12.4183 10.585C12.6705 10.8372 12.6705 11.2461 12.4183 11.4984C11.0546 12.8621 8.89567 13.0155 7.35282 11.8584L6.2369 11.0214C5.0019 10.0952 3.90482 8.99809 2.97857 7.76309L2.14163 6.64717C0.984496 5.10433 1.13793 2.94541 2.50162 1.58171C2.75386 1.32948 3.16281 1.32948 3.41504 1.58171L5.2908 3.45747C5.56742 3.73409 5.56742 4.18258 5.2908 4.4592L4.56749 5.18251C4.45254 5.29746 4.42404 5.47307 4.49674 5.61848C5.33729 7.29958 6.70042 8.66271 8.38152 9.50326C8.52692 9.57596 8.70253 9.54746 8.81749 9.43251L9.5408 8.7092C9.81742 8.43258 10.2659 8.43258 10.5425 8.7092Z" fill="white" stroke="#393A3A" stroke-width="0.85"/>
</svg>
