<svg width="17" height="18" viewBox="0 0 17 18" fill="none" xmlns="http://www.w3.org/2000/svg">
<path d="M6.15811 16.7806L6.31622 17.255H6.31622L6.15811 16.7806ZM11.1581 15.114L11.3162 15.5883H11.3162L11.1581 15.114ZM16.2071 4.29289L16.5607 4.64645L16.2071 4.29289ZM11.7929 8.70711L11.4393 8.35356L11.7929 8.70711ZM1.5 1.5H15.5V0.5H1.5V1.5ZM1 3.58579V2H0V3.58579H1ZM5.56065 8.35355L1.14645 3.93934L0.43934 4.64645L4.85355 9.06065L5.56065 8.35355ZM4.99999 9.41421V16.3063H5.99999V9.41421H4.99999ZM4.99999 16.3063C4.99999 16.9888 5.66869 17.4708 6.31622 17.255L5.99999 16.3063V16.3063H4.99999ZM6.31622 17.255L11.3162 15.5883L11 14.6396L5.99999 16.3063L6.31622 17.255ZM11.3162 15.5883C11.7246 15.4522 12 15.0701 12 14.6396H11L11.3162 15.5883ZM12 14.6396V9.41422H11V14.6396H12ZM15.8536 3.93934L11.4393 8.35356L12.1464 9.06067L16.5607 4.64645L15.8536 3.93934ZM16 2V3.58579H17V2H16ZM16.5607 4.64645C16.842 4.36514 17 3.98361 17 3.58579H16C16 3.71839 15.9473 3.84557 15.8536 3.93934L16.5607 4.64645ZM12 9.41422C12 9.28161 12.0527 9.15444 12.1464 9.06067L11.4393 8.35356C11.158 8.63486 11 9.0164 11 9.41422H12ZM4.85355 9.06065C4.94731 9.15442 4.99999 9.2816 4.99999 9.41421H5.99999C5.99999 9.01638 5.84196 8.63485 5.56065 8.35355L4.85355 9.06065ZM0 3.58579C0 3.98361 0.158035 4.36514 0.43934 4.64645L1.14645 3.93934C1.05268 3.84557 1 3.71839 1 3.58579H0ZM15.5 1.5C15.7761 1.5 16 1.72386 16 2H17C17 1.17157 16.3284 0.5 15.5 0.5V1.5ZM1.5 0.5C0.671573 0.5 0 1.17157 0 2H1C1 1.72386 1.22386 1.5 1.5 1.5V0.5Z" fill="white"/>
</svg>
