<svg width="20" height="20" viewBox="0 0 20 20" fill="none" xmlns="http://www.w3.org/2000/svg">
<g clip-path="url(#clip0)">
<path d="M19.871 12.165L11.042 2.40701C10.768 2.10401 10.398 1.93701 10 1.93701C9.603 1.93701 9.233 2.10401 8.958 2.40701L0.129001 12.165C-0.0559986 12.37 -0.0399986 12.686 0.164001 12.871C0.260001 12.958 0.380001 13 0.499001 13C0.635001 13 0.771001 12.945 0.870001 12.835L2.999 10.482V18.5C2.999 19.327 3.672 20 4.499 20H15.499C16.326 20 16.999 19.327 16.999 18.5V10.482L19.128 12.835C19.313 13.04 19.629 13.056 19.834 12.87C20.039 12.684 20.055 12.369 19.869 12.164L19.871 12.165ZM12 19H8V14.5C8 14.224 8.224 14 8.5 14H11.5C11.776 14 12 14.224 12 14.5V19ZM16 18.5C16 18.776 15.776 19 15.5 19H13V14.5C13 13.673 12.327 13 11.5 13H8.5C7.673 13 7 13.673 7 14.5V19H4.5C4.224 19 4 18.776 4 18.5V9.37701L9.7 3.07701C9.782 2.98601 9.889 2.93601 10 2.93601C10.111 2.93601 10.218 2.98601 10.3 3.07701L16 9.37701V18.5Z" fill="white"/>
</g>
<defs>
<clipPath id="clip0">
<rect width="20" height="20" fill="white"/>
</clipPath>
</defs>
</svg>
