<svg width="14" height="14" viewBox="0 0 14 14" fill="none" xmlns="http://www.w3.org/2000/svg">
<path fill-rule="evenodd" clip-rule="evenodd" d="M7.23203 10.3857C8.09707 9.93704 11.0832 8.17628 11.0832 5.25008C11.0832 2.99492 9.255 1.16675 6.99984 1.16675C4.74467 1.16675 2.9165 2.99492 2.9165 5.25008C2.9165 8.17628 5.90261 9.93704 6.76765 10.3857C6.91515 10.4622 7.08452 10.4622 7.23203 10.3857ZM7 7C7.9665 7 8.75 6.2165 8.75 5.25C8.75 4.2835 7.9665 3.5 7 3.5C6.0335 3.5 5.25 4.2835 5.25 5.25C5.25 6.2165 6.0335 7 7 7Z" fill="white"/>
<path d="M7.23203 10.3857L7.39318 10.6964H7.39318L7.23203 10.3857ZM6.76765 10.3857L6.9288 10.075H6.9288L6.76765 10.3857ZM10.7332 5.25008C10.7332 6.58634 10.0523 7.67458 9.23344 8.50055C8.41488 9.3262 7.48769 9.85884 7.07087 10.075L7.39318 10.6964C7.84141 10.4639 8.83979 9.89185 9.73054 8.99339C10.621 8.09526 11.4332 6.84001 11.4332 5.25008H10.7332ZM6.99984 1.51675C9.0617 1.51675 10.7332 3.18822 10.7332 5.25008H11.4332C11.4332 2.80162 9.4483 0.816748 6.99984 0.816748V1.51675ZM3.2665 5.25008C3.2665 3.18822 4.93797 1.51675 6.99984 1.51675V0.816748C4.55138 0.816748 2.5665 2.80162 2.5665 5.25008H3.2665ZM6.9288 10.075C6.51198 9.85884 5.5848 9.3262 4.76624 8.50055C3.94735 7.67458 3.2665 6.58634 3.2665 5.25008H2.5665C2.5665 6.84001 3.37871 8.09526 4.26913 8.99339C5.15989 9.89185 6.15827 10.4639 6.6065 10.6964L6.9288 10.075ZM7.07088 10.075C7.02441 10.0991 6.97526 10.0991 6.9288 10.075L6.6065 10.6964C6.85504 10.8253 7.14463 10.8253 7.39318 10.6964L7.07088 10.075ZM8.4 5.25C8.4 6.0232 7.7732 6.65 7 6.65V7.35C8.1598 7.35 9.1 6.4098 9.1 5.25H8.4ZM7 3.85C7.7732 3.85 8.4 4.4768 8.4 5.25H9.1C9.1 4.0902 8.1598 3.15 7 3.15V3.85ZM5.6 5.25C5.6 4.4768 6.2268 3.85 7 3.85V3.15C5.8402 3.15 4.9 4.0902 4.9 5.25H5.6ZM7 6.65C6.2268 6.65 5.6 6.0232 5.6 5.25H4.9C4.9 6.4098 5.8402 7.35 7 7.35V6.65Z" fill="white"/>
<path d="M11.5466 10.2083C12.0074 10.4743 12.25 10.7761 12.25 11.0833C12.25 11.3904 12.0074 11.6922 11.5466 11.9583C11.0859 12.2243 10.4231 12.4452 9.625 12.5988C8.8269 12.7524 7.92157 12.8333 7 12.8333C6.07843 12.8333 5.1731 12.7524 4.375 12.5988C3.5769 12.4452 2.91415 12.2243 2.45337 11.9583C1.99258 11.6922 1.75 11.3904 1.75 11.0833C1.75 10.7761 1.99258 10.4743 2.45337 10.2083" stroke="white" stroke-width="0.7" stroke-linecap="round"/>
</svg>
