<svg width="18" height="19" viewBox="0 0 18 19" fill="none" xmlns="http://www.w3.org/2000/svg">
<path d="M3.44784 5.96942C3.76219 3.14032 6.15349 1 9 1V1C11.8465 1 14.2378 3.14032 14.5522 5.96942L14.804 8.23563C14.8551 8.6962 14.8807 8.92648 14.9234 9.15185C15.0266 9.6969 15.2048 10.225 15.4531 10.7211C15.5557 10.9262 15.6749 11.1249 15.9133 11.5222L16.637 12.7283C17.2413 13.7355 17.5434 14.239 17.328 14.6195C17.1126 15 16.5253 15 15.3507 15H2.64929C1.4747 15 0.887415 15 0.671993 14.6195C0.456571 14.239 0.758729 13.7355 1.36305 12.7283L2.08665 11.5222C2.32507 11.1249 2.44428 10.9262 2.54693 10.7211C2.79519 10.225 2.97345 9.6969 3.07662 9.15185C3.11928 8.92648 3.14487 8.6962 3.19604 8.23563L3.44784 5.96942Z" stroke="#393A3A" stroke-width="0.75"/>
<path d="M6.10027 15.4059C6.27119 16.1501 6.64783 16.8077 7.17176 17.2767C7.69569 17.7458 8.33764 18 8.99805 18C9.65845 18 10.3004 17.7458 10.8243 17.2767C11.3483 16.8077 11.7249 16.1501 11.8958 15.4059" stroke="#393A3A" stroke-width="0.75" stroke-linecap="round"/>
</svg>
