<svg width="20" height="20" viewBox="0 0 20 20" fill="none" xmlns="http://www.w3.org/2000/svg">
<g clip-path="url(#clip0)">
<path d="M9.49999 19C9.41599 19 9.33299 18.979 9.25699 18.937C9.14099 18.872 6.37999 17.326 3.88799 14.855C3.69199 14.661 3.69099 14.344 3.88499 14.148C4.07899 13.952 4.39599 13.951 4.59199 14.145C6.57099 16.107 8.77799 17.491 9.49999 17.921C10.223 17.49 12.432 16.104 14.408 14.145C14.604 13.951 14.921 13.952 15.115 14.148C15.309 14.344 15.308 14.661 15.112 14.855C12.619 17.326 9.85899 18.872 9.74299 18.937C9.66699 18.979 9.58399 19 9.49999 19Z" fill="white"/>
<path d="M1.279 11C1.091 11 0.911 10.894 0.826 10.713C0.278 9.548 0 8.383 0 7.25C0 4.355 2.355 2 5.25 2C6.23 2 7.271 2.367 8.181 3.034C8.713 3.424 9.166 3.894 9.5 4.393C9.834 3.894 10.287 3.424 10.819 3.034C11.729 2.367 12.77 2 13.75 2C16.645 2 19 4.355 19 7.25C19 8.383 18.722 9.548 18.174 10.713C18.056 10.963 17.759 11.07 17.509 10.953C17.259 10.836 17.152 10.538 17.269 10.288C17.754 9.257 18 8.235 18 7.251C18 4.908 16.093 3.001 13.75 3.001C12.047 3.001 10.393 4.402 9.974 5.659C9.906 5.863 9.715 6.001 9.5 6.001C9.285 6.001 9.094 5.863 9.026 5.659C8.607 4.402 6.953 3.001 5.25 3.001C2.907 3.001 1 4.908 1 7.251C1 8.235 1.246 9.257 1.731 10.288C1.849 10.538 1.741 10.836 1.491 10.953C1.422 10.985 1.35 11.001 1.279 11.001V11Z" fill="white"/>
<path d="M10.515 15C10.51 15 10.506 15 10.502 15C10.3 14.996 9.933 14.891 9.749 14.234L8.532 9.9L7.725 13.179C7.567 13.822 7.2 13.957 6.995 13.979C6.79 14.001 6.403 13.952 6.106 13.359L5.5 12.148C5.471 12.09 5.444 12.054 5.424 12.031C5.421 12.035 5.417 12.04 5.413 12.046C5.043 12.589 4.221 12.999 3.5 12.999H2.5C2.224 12.999 2 12.775 2 12.499C2 12.223 2.224 11.999 2.5 11.999H3.5C3.921 11.999 4.421 11.727 4.587 11.483C4.81 11.156 5.134 10.982 5.478 11.005C5.852 11.03 6.186 11.284 6.395 11.701L6.84 12.591L7.776 8.788C7.934 8.148 8.258 8.009 8.502 8.005C8.746 8.001 9.074 8.13 9.253 8.765L10.537 13.341L11.715 9.733C11.92 9.105 12.297 8.997 12.503 8.988C12.709 8.979 13.093 9.056 13.35 9.665L14.074 11.384C14.21 11.706 14.652 12 15.001 12H16.501C16.777 12 17.001 12.224 17.001 12.5C17.001 12.776 16.777 13 16.501 13H15.001C14.254 13 13.442 12.461 13.152 11.772L12.56 10.366L11.286 14.266C11.079 14.9 10.72 14.999 10.515 14.999V15Z" fill="white"/>
</g>
<defs>
<clipPath id="clip0">
<rect width="20" height="20" fill="white"/>
</clipPath>
</defs>
</svg>
