<svg width="49" height="57" viewBox="0 0 49 57" fill="none" xmlns="http://www.w3.org/2000/svg">
<path d="M22.8836 22.2147C21.8546 21.1413 20.4866 20.5503 19.0314 20.5503C17.5762 20.5503 16.2081 21.1414 15.1791 22.2147L14.1172 23.3223C13.0668 24.418 12.4883 25.8748 12.4883 27.4243C12.4883 29.4301 13.4784 30.4114 14.3089 30.8813C15.1878 31.3786 16.327 31.6003 18.0027 31.6003H19.9661C21.3532 31.6003 25.5745 31.6003 25.5745 27.4243C25.5745 25.8748 24.996 24.418 23.9455 23.3224L22.8836 22.2147Z" fill="white"/>
<path d="M19.0307 18.6002C20.5794 18.6002 21.8349 17.1451 21.8349 15.3502C21.8349 13.5552 20.5794 12.1002 19.0307 12.1002C17.482 12.1002 16.2266 13.5552 16.2266 15.3502C16.2266 17.1451 17.482 18.6002 19.0307 18.6002Z" fill="white"/>
<path d="M13.5218 16.5183C12.9522 15.9241 12.2181 15.5632 11.4548 15.5019C10.6493 15.4374 9.87689 15.724 9.33574 16.2885C8.24236 17.429 8.34119 19.3877 9.55603 20.6549C10.2054 21.3323 11.0442 21.677 11.8514 21.677C12.5542 21.677 13.2332 21.4156 13.742 20.8848C14.8354 19.7442 14.7366 17.7855 13.5218 16.5183Z" fill="white"/>
<path d="M29.9721 6.57503C31.5209 6.57503 32.7763 5.11994 32.7763 3.325C32.7763 1.53007 31.5209 0.0749817 29.9721 0.0749817C28.4234 0.0749817 27.168 1.53007 27.168 3.325C27.168 5.11994 28.4234 6.57503 29.9721 6.57503Z" fill="white"/>
<path d="M20.4986 8.62982C21.148 9.30719 21.9867 9.65196 22.794 9.65196C23.4968 9.65196 24.1757 9.39059 24.6847 8.85973C25.2259 8.2952 25.5007 7.48959 25.4387 6.64932C25.38 5.85313 25.0339 5.08743 24.4644 4.49332C23.8948 3.89915 23.1607 3.53821 22.3974 3.47691C21.592 3.41224 20.8194 3.69902 20.2783 4.26348C19.7371 4.82801 19.4623 5.63363 19.5242 6.47389C19.5829 7.27001 19.929 8.03572 20.4986 8.62982Z" fill="white"/>
<path d="M39.6659 4.26357C39.1247 3.69904 38.3531 3.41194 37.5468 3.477C36.7835 3.53823 36.0494 3.89924 35.4799 4.49341C34.265 5.7606 34.1662 7.71932 35.2596 8.85982C35.7685 9.39074 36.4473 9.65204 37.1502 9.65204C37.9573 9.65204 38.7963 9.30722 39.4456 8.62991C40.6604 7.36279 40.7593 5.40407 39.6659 4.26357Z" fill="white"/>
<path d="M34.8877 11.2971L33.8258 10.1894C32.7968 9.11607 31.4287 8.52502 29.9735 8.52502C28.5183 8.52502 27.1502 9.11614 26.1213 10.1894L25.0593 11.2971C24.1202 12.2767 23.5597 13.5452 23.4512 14.9103C24.3007 14.1242 25.3578 13.6462 26.4621 13.5576C26.5838 13.5479 26.7073 13.5429 26.8289 13.5429C28.0588 13.5429 29.2014 14.0283 30.0462 14.9096C30.9738 15.8772 31.4462 17.2398 31.3423 18.6485C31.3192 18.9618 31.2685 19.2714 31.1918 19.5741C32.794 19.5596 36.5166 19.3208 36.5166 15.3991C36.5166 13.8495 35.9381 12.3927 34.8877 11.2971Z" fill="white"/>
<path d="M26.8283 15.4929C26.7541 15.4929 26.6795 15.4959 26.6046 15.5019C25.8413 15.5631 25.1073 15.9241 24.5377 16.5182C24.2681 16.7995 24.0492 17.1195 23.8865 17.4627C23.7069 17.841 23.5949 18.2535 23.5633 18.6743C23.5013 19.5145 23.7762 20.3201 24.3174 20.8847C24.8264 21.4156 25.5052 21.677 26.2081 21.677C27.0152 21.677 27.8541 21.3321 28.5034 20.6549C28.8007 20.3438 29.0452 19.9771 29.2152 19.5752C29.3603 19.2324 29.4505 18.869 29.4778 18.4988C29.5397 17.6586 29.2649 16.853 28.7237 16.2884C28.2328 15.7764 27.5523 15.4929 26.8283 15.4929Z" fill="white"/>
<path d="M16.7972 34.2658V48.025H13.4456V39.7734L10.3684 48.025H7.6636L4.5668 39.7538V48.025H1.2152V34.2658H5.1744L9.0356 43.7914L12.8576 34.2658H16.7972ZM29.7326 48.025L28.4586 46.7902C27.1911 47.7571 25.6754 48.2406 23.9114 48.2406C22.853 48.2406 21.9318 48.0707 21.1478 47.731C20.3638 47.3782 19.7562 46.8882 19.325 46.261C18.9069 45.6207 18.6978 44.8759 18.6978 44.0266C18.6978 43.1642 18.9265 42.3867 19.3838 41.6942C19.8542 40.9886 20.5533 40.4137 21.481 39.9694C21.1413 39.5513 20.8995 39.1527 20.7558 38.7738C20.6121 38.3818 20.5402 37.9571 20.5402 37.4998C20.5402 36.8465 20.7101 36.2519 21.0498 35.7162C21.3895 35.1805 21.8795 34.7623 22.5198 34.4618C23.1731 34.1482 23.9441 33.9914 24.8326 33.9914C25.7342 33.9914 26.4986 34.1547 27.1258 34.4814C27.753 34.8081 28.2234 35.2458 28.537 35.7946C28.8506 36.3434 28.9943 36.9445 28.9682 37.5978H25.8126C25.8257 37.245 25.7342 36.9771 25.5382 36.7942C25.3553 36.5982 25.107 36.5002 24.7934 36.5002C24.4798 36.5002 24.2185 36.5917 24.0094 36.7746C23.8003 36.9575 23.6958 37.1927 23.6958 37.4802C23.6958 37.7546 23.7807 38.0421 23.9506 38.3426C24.1335 38.6431 24.4145 38.9894 24.7934 39.3814L28.145 42.6546C28.1711 42.5893 28.2038 42.5109 28.243 42.4194C28.2953 42.3279 28.3475 42.2234 28.3998 42.1058L29.125 40.871H32.4766L31.5358 42.5762C31.183 43.3471 30.7779 44.0789 30.3206 44.7714L33.633 48.025H29.7326ZM24.0682 45.5358C24.9437 45.5358 25.7211 45.2875 26.4006 44.791L23.343 41.8314C22.4022 42.3149 21.9318 42.9682 21.9318 43.7914C21.9318 44.2879 22.1213 44.7061 22.5002 45.0458C22.8922 45.3725 23.4149 45.5358 24.0682 45.5358ZM40.0001 34.2658C41.4505 34.2658 42.7179 34.5533 43.8025 35.1282C44.887 35.7031 45.7233 36.5133 46.3113 37.5586C46.9123 38.5909 47.2129 39.7865 47.2129 41.1454C47.2129 42.4913 46.9123 43.6869 46.3113 44.7322C45.7233 45.7775 44.8805 46.5877 43.7829 47.1626C42.6983 47.7375 41.4374 48.025 40.0001 48.025H34.8453V34.2658H40.0001ZM39.7845 45.1242C41.0519 45.1242 42.0385 44.7779 42.7441 44.0854C43.4497 43.3929 43.8025 42.4129 43.8025 41.1454C43.8025 39.8779 43.4497 38.8914 42.7441 38.1858C42.0385 37.4802 41.0519 37.1274 39.7845 37.1274H38.1969V45.1242H39.7845Z" fill="white"/>
</svg>
