<svg width="17" height="17" viewBox="0 0 17 17" fill="none" xmlns="http://www.w3.org/2000/svg">
<g clip-path="url(#clip0)">
<path d="M14.5091 2.49105C11.188 -0.82994 5.81246 -0.830438 2.49093 2.49105C-0.830095 5.81212 -0.830527 11.1877 2.49093 14.5092C5.81196 17.8302 11.1875 17.8307 14.5091 14.5092C17.8301 11.1881 17.8305 5.81255 14.5091 2.49105ZM8.49998 16.4671C4.107 16.4671 0.533019 12.8931 0.533019 8.5001C0.533019 4.10712 4.107 0.533141 8.49998 0.533141C12.893 0.533141 16.4669 4.10712 16.4669 8.5001C16.4669 12.8931 12.893 16.4671 8.49998 16.4671Z" fill="#393A3A"/>
<path d="M14.5869 10.8668C13.6876 9.58766 12.4078 8.62472 10.9445 8.11507C11.75 7.41378 12.2182 6.40028 12.2182 5.31319C12.2182 3.26313 10.5504 1.59528 8.50033 1.59528C6.45027 1.59528 4.78242 3.26313 4.78242 5.31319C4.78242 6.40025 5.25064 7.41371 6.0562 8.11507C4.59287 8.62472 3.31311 9.58766 2.41374 10.8668C2.24909 11.101 2.22778 11.4038 2.35817 11.6571C3.53154 13.9362 5.88372 15.4047 8.5003 15.4047C11.1154 15.4047 13.4684 13.9376 14.6425 11.657C14.7729 11.4038 14.7516 11.101 14.5869 10.8668ZM5.31355 5.31319C5.31355 3.55598 6.74312 2.12641 8.50033 2.12641C10.2575 2.12641 11.6871 3.55598 11.6871 5.31319C11.6871 6.40008 11.1413 7.40163 10.2271 7.99225C10.227 7.99228 10.227 7.99231 10.2269 7.99235C9.18051 8.66768 7.82573 8.67123 6.77379 7.99235C6.77373 7.99231 6.77369 7.99228 6.77363 7.99225C5.85938 7.40156 5.31355 6.40005 5.31355 5.31319ZM14.1703 11.414C11.7976 16.0225 5.20357 16.0235 2.83044 11.414C2.79078 11.3369 2.79761 11.2443 2.84827 11.1722C3.75624 9.88095 5.08114 8.9363 6.58863 8.50263C7.72701 9.18769 9.2063 9.2261 10.4121 8.50263C11.9196 8.9363 13.2445 9.88095 14.1525 11.1722C14.2031 11.2443 14.21 11.3369 14.1703 11.414Z" fill="#393A3A"/>
</g>
<defs>
<clipPath id="clip0">
<rect width="17" height="17" fill="white"/>
</clipPath>
</defs>
</svg>
