<svg width="24" height="24" viewBox="0 0 24 24" fill="none" xmlns="http://www.w3.org/2000/svg">
<path d="M4 19.0012H2C2 15.6875 4.68629 13.0012 8 13.0012C11.3137 13.0012 14 15.6875 14 19.0012H12C12 16.7921 10.2091 15.0012 8 15.0012C5.79086 15.0012 4 16.7921 4 19.0012ZM18.364 15.3642L16.95 13.9502C18.2629 12.6375 19.0005 10.8569 19.0005 9.00023C19.0005 7.14359 18.2629 5.36301 16.95 4.05023L18.364 2.63623C21.8781 6.15084 21.8781 11.8486 18.364 15.3632V15.3642ZM15.535 12.5362L14.121 11.1202C15.2908 9.94896 15.2908 8.0515 14.121 6.88023L15.535 5.46323C17.4876 7.41584 17.4876 10.5816 15.535 12.5342V12.5362ZM8 12.0002C5.79086 12.0002 4 10.2094 4 8.00023C4 5.79109 5.79086 4.00023 8 4.00023C10.2091 4.00023 12 5.79109 12 8.00023C12 9.0611 11.5786 10.0785 10.8284 10.8287C10.0783 11.5788 9.06087 12.0002 8 12.0002ZM8 6.00023C6.9074 6.00134 6.01789 6.87908 6.00223 7.97157C5.98658 9.06406 6.85057 9.96693 7.94269 9.99935C9.03481 10.0318 9.95083 9.18173 10 8.09023V8.49023V8.00023C10 6.89566 9.10457 6.00023 8 6.00023Z" fill="#2E3A59"/>
</svg>
